<?xml version="1.0" standalone="no"?>
<!DOCTYPE svg PUBLIC "-//W3C//DTD SVG 20010904//EN"
 "http://www.w3.org/TR/2001/REC-SVG-20010904/DTD/svg10.dtd">
<svg version="1.0" xmlns="http://www.w3.org/2000/svg"
 width="180.000000pt" height="180.000000pt" viewBox="0 0 180.000000 180.000000"
 preserveAspectRatio="xMidYMid meet">
<metadata>
Created by potrace 1.10, written by Peter Selinger 2001-2011
</metadata>
<g transform="translate(0.000000,180.000000) scale(0.100000,-0.100000)"
fill="#000000" stroke="none">
<path d="M796 1623 c-3 -3 -6 -14 -6 -23 0 -9 -16 -24 -35 -33 -42 -20 -61
-49 -68 -104 -4 -36 -2 -43 12 -43 20 0 41 19 41 37 0 7 -7 13 -15 13 -13 0
-14 4 -3 23 10 19 13 20 16 5 2 -11 13 -18 27 -18 29 0 57 56 34 71 -12 8 -12
10 1 18 17 12 33 4 26 -14 -12 -33 52 -73 70 -43 5 8 2 9 -11 5 -20 -8 -45 8
-45 29 0 8 8 14 18 14 23 -1 65 -37 57 -50 -3 -5 -2 -17 3 -26 6 -12 4 -26 -7
-45 -14 -25 -21 -28 -63 -26 -27 1 -48 1 -48 0 0 -1 -2 -7 -5 -15 -4 -11 9
-13 68 -10 68 4 77 2 125 -28 130 -80 202 -235 202 -435 -1 -130 -10 -159 -72
-223 -148 -152 -281 -174 -418 -69 -70 54 -90 107 -97 257 -8 162 22 279 97
377 42 56 41 83 -2 29 -103 -129 -144 -348 -98 -526 l19 -75 -22 -14 c-50 -33
-114 -109 -119 -139 -6 -42 14 -98 47 -132 l27 -28 -31 -18 c-17 -10 -38 -33
-47 -52 -14 -31 -14 -38 1 -85 l17 -51 -26 -18 c-31 -23 -61 -71 -74 -121 -15
-54 0 -46 21 12 30 85 133 158 163 116 8 -10 17 -15 21 -11 15 15 -37 46 -67
40 -27 -6 -29 -3 -40 35 -19 73 8 117 89 146 55 19 67 19 51 0 -9 -11 -9 -15
-1 -15 16 0 26 29 14 41 -6 6 -19 6 -37 -1 -21 -7 -32 -6 -50 5 -28 19 -66 85
-66 117 0 34 37 86 89 125 l43 34 45 -42 c24 -22 70 -52 100 -66 49 -23 64
-25 128 -20 68 6 74 5 112 -23 76 -56 95 -154 49 -240 l-24 -45 -64 3 c-46 2
-59 0 -48 -7 8 -6 33 -11 56 -11 39 0 40 -1 36 -28 -2 -18 2 -33 12 -41 13
-11 17 -9 26 13 5 14 7 33 4 41 -5 11 1 15 20 15 15 0 43 7 63 15 19 8 39 15
44 15 4 0 21 -21 36 -47 24 -41 28 -58 27 -116 -1 -38 3 -67 8 -67 6 0 8 -7 4
-15 -3 -8 -2 -15 3 -15 5 0 8 38 6 84 -2 70 -7 92 -28 128 -38 66 -47 71 -90
53 -35 -15 -87 -20 -87 -10 0 3 8 22 19 43 27 56 33 89 21 133 -12 43 -69 114
-101 124 -27 9 -24 18 15 39 19 10 59 41 88 70 107 101 138 126 158 126 27 0
27 -51 0 -148 -11 -39 -20 -77 -20 -82 0 -22 19 1 25 31 l7 31 25 -24 c37 -34
63 -92 63 -139 0 -37 -6 -46 -62 -100 -64 -61 -70 -78 -12 -34 l33 25 35 -59
c69 -112 83 -197 46 -259 -13 -22 -16 -32 -8 -30 27 9 49 71 44 121 -6 53 -42
140 -82 199 l-26 37 21 28 c47 63 33 144 -40 221 -30 32 -30 33 -19 88 20 96
-4 131 -66 94 l-34 -19 7 27 c15 51 8 243 -11 307 -37 126 -115 234 -197 273
-33 15 -37 20 -32 47 3 17 11 36 17 44 8 11 8 15 -1 18 -7 3 -13 12 -13 21 -1
43 -62 82 -126 82 -19 0 -34 5 -34 11 0 5 5 7 10 4 6 -3 10 -2 10 4 0 13 -15
22 -24 14z m-6 -99 c0 -8 -2 -14 -4 -14 -2 0 -11 -3 -20 -6 -11 -4 -16 0 -16
14 0 20 18 33 33 25 4 -2 7 -11 7 -19z"/>
<path d="M710 1405 c0 -2 5 -15 11 -28 10 -21 14 -23 35 -13 13 6 24 17 24 25
0 11 -4 11 -18 -2 -24 -22 -31 -21 -25 3 4 14 0 20 -11 20 -9 0 -16 -2 -16 -5z"/>
<path d="M879 1340 c-41 -4 -88 -14 -105 -23 -37 -20 -20 -21 53 -2 31 8 72
15 90 15 17 0 35 5 38 10 3 6 5 9 3 9 -2 -1 -37 -5 -79 -9z"/>
<path d="M792 1184 c-12 -8 -20 -19 -17 -24 3 -4 2 -16 -1 -25 -5 -12 -9 -13
-14 -4 -4 6 -6 -3 -5 -22 2 -19 4 -40 4 -47 1 -7 6 -10 13 -6 8 5 9 2 5 -9 -8
-21 28 -47 64 -47 31 0 84 40 92 70 3 13 1 18 -5 13 -8 -4 -9 5 -5 29 6 39 -5
64 -22 53 -8 -4 -9 -11 -3 -18 5 -7 9 -19 9 -27 0 -8 3 -26 8 -40 4 -14 4 -22
0 -17 -5 4 -15 1 -24 -6 -15 -13 -99 -42 -87 -30 3 3 -1 15 -9 27 -21 29 -19
79 4 100 12 11 32 17 53 15 18 -2 34 1 35 6 1 6 -5 9 -12 9 -8 -1 -12 2 -9 7
9 15 -50 10 -74 -7z"/>
<path d="M996 1175 c-15 -14 -25 -29 -21 -34 3 -5 0 -22 -5 -37 -18 -47 30
-104 88 -104 32 0 74 39 66 62 -3 12 -2 18 3 15 6 -4 9 14 8 40 -2 35 -8 50
-26 64 -34 27 -81 24 -113 -6z m112 -5 c16 -15 20 -28 16 -46 -4 -14 -7 -39
-8 -55 -3 -56 -61 -76 -108 -39 -21 16 -25 26 -22 61 2 23 11 50 20 61 22 24
69 23 94 -2 11 -11 20 -16 20 -12 0 11 -30 38 -50 45 -13 5 -13 6 1 6 8 1 25
-8 37 -19z"/>
<path d="M1031 1103 l-41 -48 21 -17 c12 -10 30 -18 41 -18 26 0 58 18 58 32
0 6 -7 4 -18 -5 -16 -15 -65 -17 -79 -4 -3 4 11 27 32 52 50 62 38 69 -14 8z"/>
<path d="M864 1142 c-14 -10 -64 -77 -64 -87 0 -11 38 24 62 58 20 28 21 42 2
29z"/>
<path d="M866 863 c11 -93 24 -115 75 -128 17 -4 31 -1 45 12 11 10 15 15 10
11 -16 -13 -71 -9 -92 6 -23 18 -17 25 32 36 27 6 43 5 60 -6 25 -17 24 -21
38 89 l5 37 -77 -2 -77 -2 68 -3 c59 -3 67 -6 57 -18 -8 -10 -32 -15 -67 -15
-46 0 -56 3 -60 20 -3 11 -10 20 -15 20 -6 0 -7 -23 -2 -57z"/>
<path d="M720 286 c0 -2 11 -24 25 -47 29 -51 32 -95 9 -121 -16 -17 -15 -19
10 -39 28 -22 33 -48 14 -67 -7 -7 -8 -12 -2 -12 15 0 34 22 34 39 0 8 -10 25
-22 38 -18 20 -20 26 -10 48 7 14 12 34 12 44 0 23 -49 121 -61 121 -5 0 -9
-2 -9 -4z"/>
</g>
</svg>
